<?xml version="1.0" encoding="UTF-8"?>
<svg width="24px" height="24px" viewBox="0 0 24 24" version="1.1" xmlns="http://www.w3.org/2000/svg" xmlns:xlink="http://www.w3.org/1999/xlink">
    <title>Link Icon</title>
    <g id="Link-Icon" stroke="none" stroke-width="1" fill="none" fill-rule="evenodd">
        <path d="M12.4006042,8.9352656 C13.5955952,9.62704218 14.3994949,10.9193881 14.3994949,12.3994949 L14.3994949,16.3994949 C14.3994949,18.6086339 12.6086339,20.3994949 10.3994949,20.3994949 C8.19035594,20.3994949 6.39949494,18.6086339 6.39949494,16.3994949 L6.39949494,12.3994949 C6.39949494,10.9189799 7.20383817,9.62632938 8.39937449,8.93469339 L8.39949494,16.3994949 C8.39949494,17.5040644 9.29492544,18.3994949 10.3994949,18.3994949 C11.4538567,18.3994949 12.3176601,17.5836171 12.3940092,16.5487573 L12.3994949,16.3994949 L12.4006042,8.9352656 Z M13.3994949,3.39949494 C15.6086339,3.39949494 17.3994949,5.19035594 17.3994949,7.39949494 L17.3994949,11.3994949 C17.3994949,12.8796017 16.5955952,14.1719477 15.4006042,14.8637243 L15.3994949,7.39949494 C15.3994949,6.29492544 14.5040644,5.39949494 13.3994949,5.39949494 C12.3451331,5.39949494 11.4813298,6.21537273 11.4049807,7.25023259 L11.3994949,7.39949494 L11.3993745,14.8642965 C10.2038382,14.1726605 9.39949494,12.8800099 9.39949494,11.3994949 L9.39949494,7.39949494 C9.39949494,5.19035594 11.1903559,3.39949494 13.3994949,3.39949494 Z" id="Combined-Shape" fill="#FFFFFF" fill-rule="nonzero" transform="translate(11.899495, 11.899495) rotate(45.000000) translate(-11.899495, -11.899495) "></path>
    </g>
</svg>